<svg width="21" height="23" viewBox="0 0 21 23" fill="none" xmlns="http://www.w3.org/2000/svg">
<path opacity="0.6" d="M16.8331 22.4401H14.806C14.4681 22.4401 14.1442 22.295 13.9061 22.0371C13.668 21.7792 13.5355 21.4297 13.538 21.0663L16.8331 22.4401ZM16.8331 22.4401C17.7798 22.4427 18.6886 22.0401 19.3588 21.321C20.0291 20.6019 20.4058 19.6255 20.4058 18.6073V8.851C20.4058 8.02847 20.0669 7.24826 19.4803 6.72054L16.8331 22.4401ZM14.538 21.073H14.538V21.0663V17.6416C14.538 16.9791 14.294 16.3305 13.8393 15.8414C13.3823 15.3499 12.7463 15.0587 12.0663 15.0587H9.09517C7.66274 15.0587 6.62349 16.285 6.62349 17.6416V20.3624L6.60045 20.3707L6.59575 21.0695C6.5939 21.3438 6.40393 21.4401 6.31841 21.4401H4.33766C2.98413 21.4401 1.76489 20.2372 1.76489 18.5973V8.86294C1.77972 8.30524 2.02603 7.80447 2.40488 7.48863L2.41236 7.48239L2.41971 7.47601L9.15798 1.6322L9.17153 1.62046L9.18464 1.60823C9.9761 0.870504 11.1185 0.850364 11.9301 1.55309L11.933 1.55564L18.8189 7.47076C19.1804 7.80005 19.4058 8.30219 19.4058 8.851V18.6073C19.4058 19.3825 19.1184 20.1124 18.6274 20.6392C18.1386 21.1634 17.4924 21.4419 16.8359 21.4401H16.8331H14.806C14.7592 21.4401 14.698 21.4207 14.6409 21.3589C14.5816 21.2945 14.5372 21.1927 14.538 21.073Z" stroke="#133D4D" stroke-width="2"/>
</svg>
